<svg width="60" height="60" viewBox="0 0 60 60" fill="none" xmlns="http://www.w3.org/2000/svg">
<circle cx="30" cy="30" r="30" fill="white"/>
<path d="M30 13.75C29.3097 13.75 28.75 14.3096 28.75 15V21.6667C28.75 21.6669 28.75 21.6664 28.75 21.6667V33.7659C27.5146 32.7164 25.9146 32.0833 24.1667 32.0833C20.2547 32.0833 17.0833 35.2547 17.0833 39.1667C17.0833 43.0787 20.2547 46.25 24.1667 46.25C28.0787 46.25 31.25 43.0787 31.25 39.1667C31.25 38.9687 31.2419 38.7725 31.2259 38.5786C31.2417 38.4993 31.25 38.4173 31.25 38.3333L31.25 22.9167H40C42.5313 22.9167 44.5833 20.8646 44.5833 18.3333C44.5833 15.802 42.5313 13.75 40 13.75H30Z" fill="#CB6B82"/>
</svg>
